<svg preserveAspectRatio="xMidYMid meet" id="comp-kabav21isvgcontent" data-bbox="44 19.998 112 160.002" xmlns="http://www.w3.org/2000/svg" width="200" height="200" viewBox="44 19.998 112 160.002" data-type="color" role="img">
    <g>
        <path fill="#020619" d="M104.517 118.567c-9.285 0-16.881 7.593-16.881 16.873v28.338a4.535 4.535 0 004.523 4.521h24.717a4.535 4.535 0 004.523-4.521V135.44c-.001-9.28-7.598-16.873-16.882-16.873z" data-color="1"></path>
        <path d="M44.968 19.998l24.084 7.755-.65 2.02-24.085-7.755.65-2.02z" fill="#020619" data-color="1"></path>
        <path d="M68.483 33.176v2.122H56.439v-2.122h12.044z" fill="#020619" data-color="1"></path>
        <path d="M53.231 33.176v2.122H44v-2.122h9.231z" fill="#020619" data-color="1"></path>
        <path d="M68.4 38.527l.651 2.02-24.082 7.76-.651-2.02 24.082-7.76z" fill="#020619" data-color="1"></path>
        <path fill="#020619" d="M146.261 92.352l-8.263-8.866-3.33-12.026-.035-.126-.064-.114c-1.859-3.28-5.934-6.726-12.824-10.844-.024-.015-.051-.023-.076-.035v-1.057a2.156 2.156 0 00-2.155-2.154h-.26l.076-6.626 7.683-1.097a2.86 2.86 0 002.289-1.819 2.857 2.857 0 00-.467-2.885l-9.382-11.362v-1.734a5.007 5.007 0 00-5.003-5.001H90.392c-1.563 0-2.96.721-3.879 1.847a3.483 3.483 0 00-2.511-1.073l-5.039 1.219a3.505 3.505 0 00-3.369 2.582H72.71v8.485h3.298a3.505 3.505 0 003.199 2.095l4.795.975a3.48 3.48 0 002.365-.932 5.005 5.005 0 003.335 1.987c-.076.681-.19 1.397-.345 2.13-1.587-.843-4.129-1.93-5.967-.338l-1.837 1.404a5.21 5.21 0 00-.973 7.297 5.154 5.154 0 002.447 1.759l-.033.026v2.681s2.402-.613 5.324-2.447l8.258 4.389a4.97 4.97 0 00-2.688 1.464 4.97 4.97 0 00-1.385 3.572 4.982 4.982 0 001.455 3.401 5.19 5.19 0 00-1.532 2.135 5.17 5.17 0 00.095 3.981l2.078 4.675a5.174 5.174 0 00-1.934 2.437 5.165 5.165 0 00.096 3.981l2.247 5.057c-1.601 1.494-2.122 3.879-1.216 5.92l.953 2.145a5.165 5.165 0 002.039 2.317c-2.555 2.312-5.804 4.031-9.328 4.897-6.575 1.616-11.33 7.458-11.565 14.205l-1.767 50.991a7.989 7.989 0 002.354 5.689 8 8 0 005.683 2.373l41.778.068h.013c4.433-.001 8.044-3.601 8.052-8.047l-.478-44.025c-.145-4.105-.547-8.777-1.053-13.401l7.607 7.445c8.521-4.835 14.883-13.035 17.696-22.808l.224-.782-9.739-6.03zM85.163 54.167a3.09 3.09 0 01-.854.005 3.062 3.062 0 01-2.044-1.179 3.086 3.086 0 01.577-4.322l1.865-1.425.06-.05c.929-.825 2.929.225 4.018.829-.698 2.106-1.827 4.255-3.622 6.142zm34.384 5.116v5.873l-9.379-4.184a6.294 6.294 0 00-2.658-.543l-4.927.082.017-1.26 16.947.032zM87.511 38.836v-7.231a2.883 2.883 0 012.881-2.879h24.059a2.884 2.884 0 012.881 2.879v2.497l9.868 11.95a.757.757 0 01.124.769.757.757 0 01-.61.485l-9.484 1.354-.01.91-.086 7.56h-11.523c-.057-.08-.116-.15-.173-.232l-.135-.343c-.088-.223-.187-.441-.281-.662a27.14 27.14 0 00-1.535-3.041c-2.907-4.917-7.37-8.844-12.684-11.055l-.196-.082h-.212a2.883 2.883 0 01-2.884-2.879zM99.32 50.64l-3.638-1.933c.206-.361.407-.729.597-1.114a24.587 24.587 0 013.041 3.047zm-9.053 4.293a21.533 21.533 0 004.295-4.471l7.262 3.77a24.167 24.167 0 011.414 2.897h-.638a2.157 2.157 0 00-2.155 2.154v1.263l-.097.002a1.059 1.059 0 00-.466-.505l-9.615-5.11zm4.194 19.448a3.06 3.06 0 01-.055-2.358 3.057 3.057 0 011.542-1.666 4.997 4.997 0 001.568.255c.041 0 .082 0 .123-.002l1.39-.043c.038.04.077.079.123.114.411.311.739.725.949 1.197l3.536 7.956a3.06 3.06 0 01.056 2.358 3.06 3.06 0 01-1.592 1.698l-.032.014a3.088 3.088 0 01-4.071-1.567l-3.537-7.956zm.239 11.093a3.055 3.055 0 01.789-3.553l.568 1.278a5.218 5.218 0 004.767 3.092 5.2 5.2 0 00.951-.091l.912 2.053c.333.749.353 1.586.055 2.358a3.06 3.06 0 01-1.592 1.698l-.032.014a3.087 3.087 0 01-4.071-1.567L94.7 85.474zm1.984 13.121l-.953-2.144a3.087 3.087 0 01.487-3.251 5.23 5.23 0 003.656 1.51c.568 0 1.143-.1 1.704-.296l.746 1.678c.333.749.353 1.586.055 2.357a3.066 3.066 0 01-1.592 1.699l-.031.014a3.09 3.09 0 01-4.072-1.567zm27.268 79.283h-.009l-41.777-.072a5.887 5.887 0 01-4.183-1.749 5.864 5.864 0 01-1.736-4.152l1.767-50.956c.201-5.804 4.293-10.828 9.95-12.219 4.272-1.05 8.191-3.245 11.121-6.213.142.012.283.031.427.031.675 0 1.359-.132 2.017-.409l.09-.039a5.168 5.168 0 002.742-2.889 5.165 5.165 0 00-.096-3.981l-.853-1.919a5.206 5.206 0 001.312-1.939 5.165 5.165 0 00-.096-3.981l-.889-2a5.174 5.174 0 001.934-2.437 5.165 5.165 0 00-.096-3.981l-3.536-7.956a5.131 5.131 0 00-.28-.535l1.746-.055.557.049 7.575 3.511a.742.742 0 01.385.416l3.808 10.217c1.438 4.3 5.184 7.185 9.402 7.757.926 5.56 3.732 23.235 4.169 35.599l.478 43.986a5.934 5.934 0 01-5.929 5.916zm6.419-64.263c-.992-8.807-2.331-17.281-2.971-21.152a11.49 11.49 0 003.019-.571l1.006-.337-.673-2.012-1.007.336c-4.917 1.645-10.255-1.018-11.912-5.967l-3.82-10.251a2.856 2.856 0 00-1.481-1.6l-7.912-3.667-1.052-.093-5.988.188a2.86 2.86 0 01-2.059-.799 2.87 2.87 0 01-.098-4.074 2.868 2.868 0 012.01-.898l10.113-.168a4.225 4.225 0 011.758.359l13.767 6.142.865-1.937-2.266-1.011v-3.292c5.865 3.596 9.377 6.583 10.989 9.344l3.434 12.396 9.062 9.725c.072.077.156.137.242.188-3.156 7.966-8.831 13.611-15.026 19.151z" data-color="1"></path>
    </g>
</svg>
