<svg preserveAspectRatio="xMidYMid meet" id="comp-kabav23csvgcontent" data-bbox="20.435 32 160.001 135.997" xmlns="http://www.w3.org/2000/svg" width="200" height="200" viewBox="20.435 32 160.001 135.997" data-type="color" role="img">
    <g>
        <path fill="#020619" d="M89.712 69.35h3.281a3.114 3.114 0 013.105-3.117v-3.294c-3.522 0-6.386 2.876-6.386 6.411z" data-color="1"></path>
        <path fill="#020619" d="M138.405 88.942v-.035l-.043.04c.015 0 .028-.005.043-.005z" data-color="1"></path>
        <path fill="#020619" d="M136.797 85.862a6.402 6.402 0 00-3.776 2.763 6.387 6.387 0 00-1.003 3.434h3.281c0-.356.072-.694.183-1.013a3.1 3.1 0 012.879-2.1l.043-.04v-3.259a6.37 6.37 0 00-1.607.215z" data-color="1"></path>
        <path fill="#020619" d="M154.719 125.343c-.022-.059-.041-.119-.064-.177l.064.177z" data-color="1"></path>
        <path d="M121.523 152.149l1.542-.32-.001-.007-1.541.327z" fill="#020619" data-color="1"></path>
        <path fill="#020619" d="M180.278 98.192a8.218 8.218 0 00-3.504-5.259 8.157 8.157 0 00-6.179-1.246l-2.009.408a8.297 8.297 0 00.613-5.095c-.888-4.489-5.238-7.421-9.692-6.532l-10.813 2.178a13.07 13.07 0 00-5.297-3.046 16.41 16.41 0 00.205-2.566c0-8.894-7.207-16.13-16.067-16.13-.499 0-.995.031-1.488.078a8.199 8.199 0 001.241-4.335c0-4.543-3.681-8.239-8.206-8.239s-8.206 3.696-8.206 8.239c0 .11.012.217.016.325a18.888 18.888 0 00-9.975-2.839c-10.509 0-19.059 8.584-19.059 19.134 0 1.77.25 3.509.722 5.192a15.998 15.998 0 00-5.671 4.468 16.065 16.065 0 00-3.459 11.847 16.161 16.161 0 001.791 5.848l-11.187 12.504c-1.425 1.571-2.723 3.121-3.881 4.681l-35.709 7.848-.534.643c-3.205 3.861-3.573 11.181-3.484 15.97.181 9.743 4.416 18.586 10.867 25.729l36.956-7.945c3.929 2.289 8.324 3.484 12.82 3.484 1.686 0 3.386-.166 5.079-.503l36.06-7.669 17.626-3.667a8.193 8.193 0 005.238-3.507 8.195 8.195 0 00.809-7.646l13.17-2.585c4.456-.887 7.365-5.237 6.485-9.695a8.159 8.159 0 00-2.763-4.681l5.034-.978a8.173 8.173 0 005.238-3.518 8.243 8.243 0 001.241-6.203 8.194 8.194 0 00-2.614-4.559l2.105-.413c4.456-.885 7.364-5.246 6.481-9.72zM160.148 83.7c2.684-.534 5.298 1.235 5.832 3.942.467 2.366-.808 4.677-2.926 5.578-.306.13-.629.231-.967.299l-9.659 1.913.014-.054c.251-1.015.398-2.07.398-3.161 0-2.44-.677-4.718-1.835-6.678l9.143-1.839zm-10.589 8.517a9.805 9.805 0 01-.816 3.913l-.014.035c-.14.319-.29.633-.462.933a8.355 8.355 0 00-.657-.711l-.023-.021c-1.877-1.804-4.564-2.7-7.3-2.155l-9.535 1.931a9.82 9.82 0 01-.816-3.924c0-.921.136-1.809.372-2.655 1.106-3.957 4.612-6.906 8.838-7.165.2-.012.398-.031.601-.031.975 0 1.916.148 2.806.415a9.858 9.858 0 017.006 9.435zm-22.023-28.018c7.05 0 12.785 5.758 12.785 12.836 0 .698-.074 1.382-.182 2.056-.131-.004-.259-.02-.391-.02-3.848 0-7.302 1.685-9.7 4.347a8.213 8.213 0 00-3.148-5.435 8.117 8.117 0 00-6.071-1.616 8.352 8.352 0 00-.976.199c.183-1.258.2-2.196.172-2.8h1.243a3.114 3.114 0 013.105-3.117v-3.294a6.359 6.359 0 00-4.768 2.16 18.846 18.846 0 00-.538-2.088 12.615 12.615 0 018.469-3.228zm-8.082 32.774l3.281-.052a11.759 11.759 0 00-.835-4.152h.011c1.7 0 3.381-.539 4.794-1.558-.025.333-.051.666-.051 1.006 0 1.613.296 3.157.828 4.586l-32.014 6.483 11.116-12.884c.26-.266.491-.55.708-.841.511-.271 1.531-.697 1.842-.768a8.525 8.525 0 011.707-.2 8.4 8.4 0 015.299 1.775c.291.225.567.469.826.73a8.5 8.5 0 012.488 5.875zm-1.448-15.44a4.888 4.888 0 013.26-1.901 4.878 4.878 0 013.644.97 4.963 4.963 0 01.928 6.93 4.915 4.915 0 01-6.772 1.021c-.043-.031-.088-.057-.131-.09a4.816 4.816 0 01-.623-.576 4.961 4.961 0 01-.306-6.354zm1.076-29.83c2.716 0 4.925 2.218 4.925 4.945s-2.209 4.945-4.925 4.945-4.925-2.218-4.925-4.945 2.209-4.945 4.925-4.945zm-18.165 5.725c8.7 0 15.778 7.106 15.778 15.84l.022.268c.003.019.268 1.925-.729 5.309a8.137 8.137 0 00-.59.689 8.236 8.236 0 00-1.601 6.122 11.67 11.67 0 00-2.82-.358c-.062 0-.125 0-.187.002-.643.01-1.281.087-1.909.201a8.311 8.311 0 00-2.384-6.772 8.206 8.206 0 00-5.841-2.416 8.144 8.144 0 00-5.136 1.803 15.905 15.905 0 00-7.821-1.109 16.14 16.14 0 00-2.022.366 15.903 15.903 0 01-.537-4.103c0-8.736 7.078-15.842 15.777-15.842zM79.465 84.994a12.686 12.686 0 018.586-4.713 12.721 12.721 0 014.993.445L77.617 97.968a12.927 12.927 0 01-.904-3.547 12.788 12.788 0 012.752-9.427zm62.905 61.361a4.935 4.935 0 01-3.152 2.113l-16.153 3.36-1.542.321-36.019 7.661c-5.036 1.001-10.157.262-14.65-2.076a22.65 22.65 0 01-2.011-1.179c-4.93-3.249-8.265-8.182-9.392-13.89l-1.14-5.775c-1.238-6.272.117-11.384 4.934-17.681a60.222 60.222 0 013.242-3.871l10.647-11.902 2.226-2.488 16.814-18.795 1.003-1.121a4.883 4.883 0 011.618-1.066 4.964 4.964 0 011.858-.358c1.335 0 2.587.517 3.526 1.456 1.948 1.947 1.964 5.114.036 7.058l-13.94 16.15.062.054-5.395 1.092.649 3.229 43.496-8.809 1.781-.361 1.881-.381 8.178-1.656c2.076-.414 4.104.554 5.167 2.264a4.99 4.99 0 01.646 1.602c.005.025.014.05.019.075.129.656.123 1.307.003 1.925a4.996 4.996 0 01-3.895 3.952l-32.552 6.319-1.571.305.636 3.232 34.124-6.624a8.15 8.15 0 001.424-.428l7.083-1.404c2.682-.534 5.294 1.222 5.826 3.914.532 2.691-1.217 5.315-3.898 5.849l-20.299 4.021-26.955 5.321.652 3.228 4.867-.961 22.434-4.429 11.405-2.251c2.686-.534 5.295 1.223 5.826 3.914.531 2.692-1.218 5.315-3.899 5.849l-43.617 8.838v.002l-.514.102.638 3.232 32.82-6.531c2.683-.53 5.293 1.211 5.821 3.889a4.9 4.9 0 01-.748 3.71zm16.065-11.626l-14.564 2.859a7.908 7.908 0 00-.272-.245l5.011-.997c4.456-.886 7.363-5.246 6.48-9.72a8.306 8.306 0 00-.372-1.282l1.8-.326a4.915 4.915 0 013.717.747 4.904 4.904 0 012.104 3.141c.529 2.677-1.222 5.29-3.904 5.823zm-5.855-12.516l.027-.008c-.001.015 0 .032-.027.008zm17.76-4.957a4.92 4.92 0 01-3.149 2.118l-14.558 2.829c-.003-.003-.05-.12-.053-.122l2.001-.429c4.456-.887 7.363-5.248 6.479-9.721a8.37 8.37 0 00-.411-1.391l4.616-.93a4.902 4.902 0 013.716.752 4.938 4.938 0 012.109 3.162 4.955 4.955 0 01-.75 3.732zm-11.715-9.725c-1.873-1.769-4.536-2.644-7.248-2.104l-2.004.397a8.289 8.289 0 00.607-5.083c-.018-.093-.047-.18-.068-.272.352-.436.676-.895.971-1.374l.029-.045 13.013-2.645 7.308-1.486c2.679-.537 5.295 1.222 5.826 3.914.531 2.692-1.218 5.316-3.898 5.849l-14.536 2.849z" data-color="1"></path>
        <path fill="#020619" d="M131.242 40.944c-3.036 0-5.507 2.48-5.507 5.529s2.471 5.529 5.507 5.529c3.037 0 5.507-2.48 5.507-5.529s-2.47-5.529-5.507-5.529zm0 7.763c-1.227 0-2.225-1.002-2.225-2.234s.998-2.234 2.225-2.234 2.226 1.002 2.226 2.234-.999 2.234-2.226 2.234z" data-color="1"></path>
        <path fill="#020619" d="M109.774 32c-3.036 0-5.507 2.48-5.507 5.529s2.471 5.529 5.507 5.529c3.036 0 5.507-2.48 5.507-5.529S112.81 32 109.774 32zm0 7.763c-1.227 0-2.226-1.002-2.226-2.234s.998-2.234 2.226-2.234c1.227 0 2.225 1.002 2.225 2.234s-.998 2.234-2.225 2.234z" data-color="1"></path>
    </g>
</svg>
