<svg preserveAspectRatio="xMidYMid meet" id="comp-kabav23hsvgcontent" data-bbox="20 65.999 160 68.001" xmlns="http://www.w3.org/2000/svg" width="200" height="200" viewBox="20 65.999 160 68.001" data-type="color" role="img">
    <g>
        <path fill="#020619" d="M163.349 83.524H142.81l-34.501-15.639a21.101 21.101 0 00-17.579.064L57.023 83.524H36.651C27.47 83.524 20 91.034 20 100.265s7.47 16.74 16.651 16.74h21.517l32.561 15.045a21.104 21.104 0 0017.58.064l33.333-15.109h21.707c9.181 0 16.651-7.51 16.651-16.74 0-9.231-7.47-16.741-16.651-16.741zM54.293 114.24H36.651c-7.665 0-13.9-6.269-13.9-13.975 0-7.706 6.236-13.975 13.9-13.975h17.642v27.95zm58.676 2.41a46.844 46.844 0 01-13.358 1.95c-4.637 0-9.272-.692-13.773-2.077l-18.759-5.767.805-2.645 18.759 5.768a43.993 43.993 0 0025.547.119l19.809-5.891.78 2.652-19.81 5.891zm-34.982-14.34v-2.766h43.895v2.766H77.987zm53.999-9.358l-18.758-5.768a44.001 44.001 0 00-25.547-.119l-19.81 5.891-.78-2.652 19.81-5.891a46.727 46.727 0 0127.132.126l18.758 5.768-.805 2.645zm31.363 21.288h-17.772V86.29h17.772c7.665 0 13.9 6.269 13.9 13.975 0 7.706-6.235 13.975-13.9 13.975z" data-color="1"></path>
    </g>
</svg>
