<svg preserveAspectRatio="xMidYMid meet" id="comp-kabbcozdsvgcontent" data-bbox="16.679 52.57 166 108.999" viewBox="16.679 52.57 166 108.999" height="200" width="200" xmlns="http://www.w3.org/2000/svg" data-type="color" role="img">
    <g>
        <path d="M174.303 68.023c-11.088-6.415-29.068-6.422-40.085-.008l-83.751 50.232c-7.161 4.168-9.61 10.026-7.431 15.381l-21.909 12.757c-5.957 3.467-5.927 9.11.071 12.578 6.019 3.484 15.716 3.467 21.676 0l22.252-12.956c8.98 1.036 18.641-.466 25.566-4.496l83.743-50.232c11.024-6.412 11.005-16.82-.132-23.256z" opacity=".5"></path>
        <path d="M172.963 60.095c4.164 7.204 1.712 16.408-5.475 20.577l-88.552 51.45c-5.128 2.984-11.282 2.531-15.903-.594l-28.826 16.705c-3.127 1.832-7.144.763-8.962-2.387-1.808-3.14-.747-7.157 2.388-8.968l28.837-16.731c-.403-5.554 2.275-11.115 7.407-14.098l88.549-51.446c7.183-4.17 16.381-1.721 20.537 5.492z" fill="#EFEFE4" data-color="1"></path>
        <path d="M172.963 60.095c4.164 7.204 1.712 16.408-5.475 20.577l-88.552 51.45c-5.128 2.984-11.282 2.531-15.903-.594l-28.826 16.705c-3.127 1.832-7.144.763-8.962-2.387-1.808-3.14-.747-7.157 2.388-8.968l28.837-16.731c-.403-5.554 2.275-11.115 7.407-14.098l88.549-51.446c7.183-4.17 16.381-1.721 20.537 5.492z" opacity=".2"></path>
        <path d="M172.963 60.095c-4.156-7.214-13.354-9.662-20.537-5.492l-88.549 51.446c-5.131 2.984-7.81 8.544-7.407 14.098l.287-.156c.902-.519 2.08-.351 3.267.338 1.183.671 2.361 1.883 3.258 3.435.006.005.006.026.017.039l109.67-63.709-.006.001z" fill="#EFEFE4" data-color="1"></path>
        <path d="M32.006 144.518a2.202 2.202 0 0 1-3.042-.819 2.217 2.217 0 0 1 .812-3.036l127.493-74.04a2.224 2.224 0 0 1 3.025.821c.621 1.081.268 2.431-.799 3.044l-127.489 74.03z" fill="#EB6361" data-color="2"></path>
        <path d="M32.006 144.518a2.202 2.202 0 0 1-3.042-.819 2.217 2.217 0 0 1 .812-3.036l127.493-74.04a2.224 2.224 0 0 1 3.025.821c.621 1.081.268 2.431-.799 3.044l-127.489 74.03z" opacity=".25"></path>
        <path d="M160.294 67.444L28.963 143.699a2.234 2.234 0 0 1 .812-3.036l127.493-74.04a2.226 2.226 0 0 1 3.026.821z" fill="#EB6361" data-color="2"></path>
        <path d="M118.885 81.977c-1.018-1.751-.416-4.033 1.341-5.047l31.78-18.569c5.857-3.388 13.365-1.376 16.749 4.477a3.689 3.689 0 0 1-1.341 5.049 3.678 3.678 0 0 1-5.042-1.338 4.872 4.872 0 0 0-6.671-1.787l-31.786 18.567a3.664 3.664 0 0 1-5.03-1.352z" fill="#FFFFFF" data-color="3"></path>
        <path d="M108.792 92.106a3.699 3.699 0 0 1-5.04-1.357c-1.026-1.759-.414-4.023 1.341-5.053 1.767-1.007 4.025-.415 5.042 1.36 1.03 1.76.416 4.032-1.343 5.05z" fill="#FFFFFF" data-color="3"></path>
        <path d="M33.995 141.698c-1.437.825-3.288.336-4.111-1.109a3.022 3.022 0 0 1 1.092-4.126 3.02 3.02 0 0 1 4.12 1.109 3.02 3.02 0 0 1-1.101 4.126z" fill="#FFFFFF" data-color="3"></path>
        <path d="M80.422 131.262l4.175-2.424c.895-.518 1.63-1.497 2.009-2.933.356-1.319.454-2.768.234-4.41-.133-1.691-.6-3.461-1.29-5.299l-4.169 2.42c.685 1.839 1.152 3.608 1.292 5.293.21 1.652.114 3.089-.231 4.414-.389 1.439-1.043 2.358-2.02 2.939z" fill="#4E4D53" data-color="4"></path>
        <path d="M102.179 118.655l4.175-2.427c.966-.57 1.639-1.494 2.009-2.943.36-1.319.448-2.757.236-4.417-.133-1.68-.606-3.448-1.298-5.288l-4.162 2.42c.683 1.839 1.15 3.608 1.29 5.291.203 1.642.114 3.089-.236 4.415-.384 1.435-1.043 2.376-2.014 2.949z" fill="#4E4D53" data-color="4"></path>
        <path d="M91.996 124.544l4.1-2.375c.971-.56 1.638-1.503 2.014-2.937.358-1.321.409-2.833.236-4.412l-4.175 2.419c.178 1.578.122 3.091-.159 4.382-.384 1.418-1.112 2.402-2.016 2.923z" fill="#4E4D53" data-color="4"></path>
        <path d="M113.747 111.932l4.17-2.417c.91-.513 1.57-1.465 2.014-2.931.283-1.281.34-2.79.167-4.391l-4.163 2.439c.167 1.573.114 3.091-.171 4.37-.373 1.423-1.107 2.406-2.017 2.93z" fill="#4E4D53" data-color="4"></path>
        <path d="M123.968 106.017l4.098-2.375c.973-.571 1.637-1.509 2.022-2.945.34-1.323.437-2.766.231-4.412-.146-1.689-.608-3.466-1.292-5.297l-4.098 2.375c.683 1.838 1.15 3.608 1.292 5.295.21 1.659.12 3.089-.236 4.418-.378 1.439-1.115 2.422-2.017 2.941z" fill="#4E4D53" data-color="4"></path>
        <path d="M135.499 99.313l4.177-2.404c.902-.528 1.63-1.512 2.014-2.942.28-1.274.338-2.788.165-4.376l-4.164 2.428c.154 1.572.111 3.089-.167 4.367-.386 1.427-1.11 2.417-2.025 2.927z" fill="#4E4D53" data-color="4"></path>
        <path d="M145.681 93.433l4.175-2.431c.908-.526 1.645-1.509 2.022-2.937.351-1.323.435-2.775.23-4.419-.133-1.68-.604-3.45-1.299-5.28l-4.164 2.414c.686 1.823 1.152 3.606 1.286 5.288.216 1.65.128 3.095-.229 4.419-.378 1.428-1.113 2.42-2.021 2.946z" fill="#4E4D53" data-color="4"></path>
        <path d="M157.25 86.702l4.177-2.412c.906-.525 1.636-1.509 2.02-2.941.281-1.263.341-2.79.167-4.359l-4.093 2.373c.159 1.567.107 3.097-.249 4.417-.385 1.428-1.043 2.364-2.022 2.922z" fill="#4E4D53" data-color="4"></path>
        <path d="M39.714 137.735a2.884 2.884 0 0 1-1.446-5.377l11.134-6.462a2.875 2.875 0 0 1 3.933 1.052 2.88 2.88 0 0 1-1.047 3.94l-11.133 6.462c-.456.261-.95.385-1.441.385z" fill="#FFFFFF" data-color="3"></path>
    </g>
</svg>
